<?xml version="1.0" encoding="utf-8"?>
<svg viewBox="0 6 146 24" width="200" height="50" xmlns="http://www.w3.org/2000/svg">
    <defs>
        <path id="path-0" style="fill: none;" d="M 431.276 232.468 C 435.165 243.815 444.061 245.06 449.86 247.546 C 455.685 248.909 462.814 251.753 467.391 251.753 C 475.573 252.104 482.702 252.104 489.832 252.104 C 496.392 252.104 501.876 251.753 507.363 251.753 C 514.394 251.753 520.793 253.033 526.648 255.961 C 535.469 258.188 540.424 262.623 542.777 262.623 C 545.141 263.645 550.842 266.876 550.842 269.285 C 551.543 272.095 562.312 279.347 564.165 280.505 C 571.331 285.749 577.527 291.308 580.996 295.933 C 585.449 299.486 584.929 303.616 584.151 307.504 C 575.673 317.943 545.563 315.217 536.816 315.217 C 513.324 315.217 498.247 315.217 483.17 315.217 C 464.502 308.05 454.208 304.629 444.951 297.686 C 438.433 288.49 436.536 286.949 436.536 276.648 C 448.042 262.972 458.468 254.814 470.196 245.792 C 480.851 240.29 490.253 235.904 496.844 229.313 C 506.425 220.433 511.291 212.763 523.492 210.729 C 541.535 210.729 557.148 208.976 572.581 208.976 C 590.71 211.971 587.136 230.158 591.164 241.234 C 591.164 260.259 577.304 263.814 564.867 273.142 C 542.958 284.096 519.523 290.435 505.259 304.698 C 496.16 314.73 490.926 329.034 485.975 339.762 C 479.401 345.635 475.316 334.198 473.352 329.243 C 464.764 307.569 470.35 287.677 471.248 266.129 L 486.325 243.338 C 495.351 232.507 506.952 223.763 516.48 214.236"/>
    </defs>
    <path d="M 11.281 18.934 L 5.72 12.788 L 12.425 6.934 L -3.939 6.934 C -4.585 6.934 -5.11 7.458 -5.11 8.105 L -5.11 24.495 C -5.11 25.142 -4.585 25.666 -3.939 25.666 L -1.598 25.666 L -1.598 30.934 L 3.671 25.666 L 21.232 25.666 C 21.878 25.666 22.403 25.142 22.403 24.495 L 22.403 8.33 L 11.281 18.934 Z M 2.5 21.666 L 4.988 13.373 L 10.659 19.666 L 2.5 21.666 Z" fill="#EC6A06"/>
    <text style="white-space: pre; fill: rgb(51, 51, 51); font-family: Arial, sans-serif; font-size: 19.6px;" x="100.631" y="15.778"> </text>
    <text style="white-space: pre; fill: rgb(51, 51, 51); font-family: Arial, sans-serif; font-size: 19.6px;" x="46.984" y="14.376"> </text>
    <text style="white-space: pre; fill: rgb(51, 51, 51); font-family: Arial, sans-serif; font-size: 19.6px;" x="629.032" y="260.168"> </text>
    <text style="white-space: pre; fill: rgb(51, 51, 51); font-family: Arial, sans-serif; font-size: 19.6px;" x="615.358" y="251.753"> </text>
    <text style="fill: rgb(237, 224, 219); font-family: Arial, sans-serif; font-size: 24px; font-weight: 700; letter-spacing: 1.3px; white-space: pre;" x="24.66" y="24.831">notebook</text>
  <text style="white-space: pre; fill: rgb(51, 51, 51); font-family: Arial, sans-serif; font-size: 19.6px;" x="129.383" y="8.415"> </text>
</svg>
